<svg width="17" height="17" viewBox="0 0 17 17" fill="none" xmlns="http://www.w3.org/2000/svg">
<path d="M0.886367 4.59095C2.25758 1.86743 5.0757 0 8.33333 0C10.5795 0 12.4658 0.825792 13.9091 2.17046L11.5189 4.56062C10.6553 3.73487 9.55675 3.31439 8.33333 3.31439C6.16285 3.31439 4.3257 4.78031 3.67046 6.75C3.50375 7.25 3.40905 7.78408 3.40905 8.33333C3.40905 8.88258 3.50375 9.41667 3.67046 9.91667C4.3257 11.8863 6.16285 13.3522 8.33333 13.3522C9.4545 13.3522 10.4091 13.0568 11.1553 12.5568C12.0378 11.9659 12.625 11.0833 12.8182 10.0417H8.33333V6.81817H16.1818C16.2803 7.36358 16.3333 7.93183 16.3333 8.52275C16.3333 11.0606 15.4242 13.1969 13.8484 14.6477C12.4697 15.9205 10.5833 16.6667 8.33333 16.6667C5.0757 16.6667 2.25758 14.7992 0.886367 12.0757C0.321983 10.9507 0 9.678 0 8.33333C0 6.98867 0.321983 5.71592 0.886367 4.59095Z" fill="#BD76D5"/>
</svg>
